<?xml version="1.0" encoding="UTF-8" standalone="no"?>
<!-- Created with Inkscape (http://www.inkscape.org/) -->

<svg
   width="210mm"
   height="297mm"
   viewBox="0 0 210 297"
   version="1.1"
   id="svg1"
   inkscape:version="1.4.1 (93de688d07, 2025-03-30)"
   sodipodi:docname="stock_default.svg"
   xmlns:inkscape="http://www.inkscape.org/namespaces/inkscape"
   xmlns:sodipodi="http://sodipodi.sourceforge.net/DTD/sodipodi-0.dtd"
   xmlns="http://www.w3.org/2000/svg"
   xmlns:svg="http://www.w3.org/2000/svg">
  <sodipodi:namedview
     id="namedview1"
     pagecolor="#ffffff"
     bordercolor="#000000"
     borderopacity="0.25"
     inkscape:showpageshadow="2"
     inkscape:pageopacity="0.0"
     inkscape:pagecheckerboard="0"
     inkscape:deskcolor="#d1d1d1"
     inkscape:document-units="mm"
     inkscape:zoom="2"
     inkscape:cx="250.5"
     inkscape:cy="341.75"
     inkscape:window-width="1880"
     inkscape:window-height="2071"
     inkscape:window-x="20"
     inkscape:window-y="20"
     inkscape:window-maximized="0"
     inkscape:current-layer="layer1" />
  <defs
     id="defs1" />
  <g
     inkscape:label="Camada 1"
     inkscape:groupmode="layer"
     id="layer1">
    <path
       id="rect9"
       style="fill:#999999;stroke:none;stroke-width:4.84078"
       d="M 9.7895833 17.925521 L 9.7895833 23.944792 L 11.933122 23.944792 L 11.933122 163.975 L 9.7895833 163.975 L 9.7895833 169.99427 L 122.99818 169.99427 L 122.99818 163.975 L 120.92957 163.975 L 120.92957 23.944792 L 122.99818 23.944792 L 122.99818 17.925521 L 9.7895833 17.925521 z M 14.859558 26.386503 L 25.641846 26.386503 L 25.641846 37.168274 L 14.859558 37.168274 L 14.859558 26.386503 z M 26.248527 26.386503 L 37.030298 26.386503 L 37.030298 37.168274 L 26.248527 37.168274 L 26.248527 26.386503 z M 41.847058 26.386503 L 52.629346 26.386503 L 52.629346 37.168274 L 41.847058 37.168274 L 41.847058 26.386503 z M 53.236027 26.386503 L 64.017798 26.386503 L 64.017798 37.168274 L 53.236027 37.168274 L 53.236027 26.386503 z M 68.834558 26.386503 L 79.616846 26.386503 L 79.616846 37.168274 L 68.834558 37.168274 L 68.834558 26.386503 z M 80.223527 26.386503 L 91.005298 26.386503 L 91.005298 37.168274 L 80.223527 37.168274 L 80.223527 26.386503 z M 95.822058 26.386503 L 106.60435 26.386503 L 106.60435 37.168274 L 95.822058 37.168274 L 95.822058 26.386503 z M 107.21103 26.386503 L 117.9928 26.386503 L 117.9928 37.168274 L 107.21103 37.168274 L 107.21103 26.386503 z M 14.859558 37.961507 L 25.641846 37.961507 L 25.641846 48.743795 L 14.859558 48.743795 L 14.859558 37.961507 z M 26.248527 37.961507 L 37.030298 37.961507 L 37.030298 48.743795 L 26.248527 48.743795 L 26.248527 37.961507 z M 41.847058 37.961507 L 52.629346 37.961507 L 52.629346 48.743795 L 41.847058 48.743795 L 41.847058 37.961507 z M 53.236027 37.961507 L 64.017798 37.961507 L 64.017798 48.743795 L 53.236027 48.743795 L 53.236027 37.961507 z M 68.834558 37.961507 L 79.616846 37.961507 L 79.616846 48.743795 L 68.834558 48.743795 L 68.834558 37.961507 z M 80.223527 37.961507 L 91.005298 37.961507 L 91.005298 48.743795 L 80.223527 48.743795 L 80.223527 37.961507 z M 95.822058 37.961507 L 106.60435 37.961507 L 106.60435 48.743795 L 95.822058 48.743795 L 95.822058 37.961507 z M 107.21103 37.961507 L 117.9928 37.961507 L 117.9928 48.743795 L 107.21103 48.743795 L 107.21103 37.961507 z M 14.859558 53.90317 L 25.641846 53.90317 L 25.641846 64.684941 L 14.859558 64.684941 L 14.859558 53.90317 z M 26.248527 53.90317 L 37.030298 53.90317 L 37.030298 64.684941 L 26.248527 64.684941 L 26.248527 53.90317 z M 41.847058 53.90317 L 52.629346 53.90317 L 52.629346 64.684941 L 41.847058 64.684941 L 41.847058 53.90317 z M 53.236027 53.90317 L 64.017798 53.90317 L 64.017798 64.684941 L 53.236027 64.684941 L 53.236027 53.90317 z M 68.834558 53.90317 L 79.616846 53.90317 L 79.616846 64.684941 L 68.834558 64.684941 L 68.834558 53.90317 z M 80.223527 53.90317 L 91.005298 53.90317 L 91.005298 64.684941 L 80.223527 64.684941 L 80.223527 53.90317 z M 95.822058 53.90317 L 106.60435 53.90317 L 106.60435 64.684941 L 95.822058 64.684941 L 95.822058 53.90317 z M 107.21103 53.90317 L 117.9928 53.90317 L 117.9928 64.684941 L 107.21103 64.684941 L 107.21103 53.90317 z M 14.859558 65.478691 L 25.641846 65.478691 L 25.641846 76.260461 L 14.859558 76.260461 L 14.859558 65.478691 z M 26.248527 65.478691 L 37.030298 65.478691 L 37.030298 76.260461 L 26.248527 76.260461 L 26.248527 65.478691 z M 41.847058 65.478691 L 52.629346 65.478691 L 52.629346 76.260461 L 41.847058 76.260461 L 41.847058 65.478691 z M 53.236027 65.478691 L 64.017798 65.478691 L 64.017798 76.260461 L 53.236027 76.260461 L 53.236027 65.478691 z M 68.834558 65.478691 L 79.616846 65.478691 L 79.616846 76.260461 L 68.834558 76.260461 L 68.834558 65.478691 z M 80.223527 65.478691 L 91.005298 65.478691 L 91.005298 76.260461 L 80.223527 76.260461 L 80.223527 65.478691 z M 95.822058 65.478691 L 106.60435 65.478691 L 106.60435 76.260461 L 95.822058 76.260461 L 95.822058 65.478691 z M 107.21103 65.478691 L 117.9928 65.478691 L 117.9928 76.260461 L 107.21103 76.260461 L 107.21103 65.478691 z M 14.859558 81.419836 L 25.641846 81.419836 L 25.641846 92.201607 L 14.859558 92.201607 L 14.859558 81.419836 z M 26.248527 81.419836 L 37.030298 81.419836 L 37.030298 92.201607 L 26.248527 92.201607 L 26.248527 81.419836 z M 41.847058 81.419836 L 52.629346 81.419836 L 52.629346 92.201607 L 41.847058 92.201607 L 41.847058 81.419836 z M 53.236027 81.419836 L 64.017798 81.419836 L 64.017798 92.201607 L 53.236027 92.201607 L 53.236027 81.419836 z M 68.834558 81.419836 L 79.616846 81.419836 L 79.616846 92.201607 L 68.834558 92.201607 L 68.834558 81.419836 z M 80.223527 81.419836 L 91.005298 81.419836 L 91.005298 92.201607 L 80.223527 92.201607 L 80.223527 81.419836 z M 95.822058 81.419836 L 106.60435 81.419836 L 106.60435 92.201607 L 95.822058 92.201607 L 95.822058 81.419836 z M 107.21103 81.419836 L 117.9928 81.419836 L 117.9928 92.201607 L 107.21103 92.201607 L 107.21103 81.419836 z M 14.859558 92.995357 L 25.641846 92.995357 L 25.641846 103.77713 L 14.859558 103.77713 L 14.859558 92.995357 z M 26.248527 92.995357 L 37.030298 92.995357 L 37.030298 103.77713 L 26.248527 103.77713 L 26.248527 92.995357 z M 41.847058 92.995357 L 52.629346 92.995357 L 52.629346 103.77713 L 41.847058 103.77713 L 41.847058 92.995357 z M 53.236027 92.995357 L 64.017798 92.995357 L 64.017798 103.77713 L 53.236027 103.77713 L 53.236027 92.995357 z M 68.834558 92.995357 L 79.616846 92.995357 L 79.616846 103.77713 L 68.834558 103.77713 L 68.834558 92.995357 z M 80.223527 92.995357 L 91.005298 92.995357 L 91.005298 103.77713 L 80.223527 103.77713 L 80.223527 92.995357 z M 95.822058 92.995357 L 106.60435 92.995357 L 106.60435 103.77713 L 95.822058 103.77713 L 95.822058 92.995357 z M 107.21103 92.995357 L 117.9928 92.995357 L 117.9928 103.77713 L 107.21103 103.77713 L 107.21103 92.995357 z M 14.859558 108.9365 L 25.641846 108.9365 L 25.641846 119.71827 L 14.859558 119.71827 L 14.859558 108.9365 z M 26.248527 108.9365 L 37.030298 108.9365 L 37.030298 119.71827 L 26.248527 119.71827 L 26.248527 108.9365 z M 41.847058 108.9365 L 52.629346 108.9365 L 52.629346 119.71827 L 41.847058 119.71827 L 41.847058 108.9365 z M 53.236027 108.9365 L 64.017798 108.9365 L 64.017798 119.71827 L 53.236027 119.71827 L 53.236027 108.9365 z M 68.834558 108.9365 L 79.616846 108.9365 L 79.616846 119.71827 L 68.834558 119.71827 L 68.834558 108.9365 z M 80.223527 108.9365 L 91.005298 108.9365 L 91.005298 119.71827 L 80.223527 119.71827 L 80.223527 108.9365 z M 95.822058 108.9365 L 106.60435 108.9365 L 106.60435 119.71827 L 95.822058 119.71827 L 95.822058 108.9365 z M 107.21103 108.9365 L 117.9928 108.9365 L 117.9928 119.71827 L 107.21103 119.71827 L 107.21103 108.9365 z M 14.859558 120.51202 L 25.641846 120.51202 L 25.641846 131.29379 L 14.859558 131.29379 L 14.859558 120.51202 z M 26.248527 120.51202 L 37.030298 120.51202 L 37.030298 131.29379 L 26.248527 131.29379 L 26.248527 120.51202 z M 41.847058 120.51202 L 52.629346 120.51202 L 52.629346 131.29379 L 41.847058 131.29379 L 41.847058 120.51202 z M 53.236027 120.51202 L 64.017798 120.51202 L 64.017798 131.29379 L 53.236027 131.29379 L 53.236027 120.51202 z M 68.834558 120.51202 L 79.616846 120.51202 L 79.616846 131.29379 L 68.834558 131.29379 L 68.834558 120.51202 z M 80.223527 120.51202 L 91.005298 120.51202 L 91.005298 131.29379 L 80.223527 131.29379 L 80.223527 120.51202 z M 95.822058 120.51202 L 106.60435 120.51202 L 106.60435 131.29379 L 95.822058 131.29379 L 95.822058 120.51202 z M 107.21103 120.51202 L 117.9928 120.51202 L 117.9928 131.29379 L 107.21103 131.29379 L 107.21103 120.51202 z M 56.620833 134.34219 L 76.166927 134.34219 L 76.166927 163.64479 L 56.620833 163.64479 L 56.620833 134.34219 z "
       inkscape:export-filename="stock_default.png"
       inkscape:export-xdpi="96"
       inkscape:export-ydpi="96" />
  </g>
  <g
     inkscape:label="Camada 1 copiar"
     inkscape:groupmode="layer"
     id="g8" />
</svg>
